<?xml version="1.0" encoding="UTF-8" standalone="no"?>
<!-- Created with Inkscape (http://www.inkscape.org/) -->

<svg
   xmlns:dc="http://purl.org/dc/elements/1.1/"
   xmlns:cc="http://creativecommons.org/ns#"
   xmlns:rdf="http://www.w3.org/1999/02/22-rdf-syntax-ns#"
   xmlns:svg="http://www.w3.org/2000/svg"
   xmlns="http://www.w3.org/2000/svg"
   xmlns:sodipodi="http://sodipodi.sourceforge.net/DTD/sodipodi-0.dtd"
   xmlns:inkscape="http://www.inkscape.org/namespaces/inkscape"
   id="svg3414"
   version="1.1"
   inkscape:version="0.91 r13725"
   width="512"
   height="514"
   viewBox="0 0 512 514"
   sodipodi:docname="univunixlogo2016.svg"
   inkscape:export-filename="/home/angel/Proyectos/UnivUnix-Docpad/src/files/img/univunixlogo2016.png"
   inkscape:export-xdpi="408.69"
   inkscape:export-ydpi="408.69">
  <metadata
     id="metadata3420">
    <rdf:RDF>
      <cc:Work
         rdf:about="">
        <dc:format>image/svg+xml</dc:format>
        <dc:type
           rdf:resource="http://purl.org/dc/dcmitype/StillImage" />
        <dc:title />
      </cc:Work>
    </rdf:RDF>
  </metadata>
  <defs
     id="defs3418" />
  <sodipodi:namedview
     pagecolor="#ffffff"
     bordercolor="#666666"
     borderopacity="1"
     objecttolerance="10"
     gridtolerance="10"
     guidetolerance="10"
     inkscape:pageopacity="0"
     inkscape:pageshadow="2"
     inkscape:window-width="1920"
     inkscape:window-height="1004"
     id="namedview3416"
     showgrid="false"
     showguides="false"
     inkscape:zoom="0.8093385"
     inkscape:cx="451.18186"
     inkscape:cy="272.15156"
     inkscape:window-x="0"
     inkscape:window-y="24"
     inkscape:window-maximized="1"
     inkscape:current-layer="svg3414">
    <inkscape:grid
       type="xygrid"
       id="grid3424" />
  </sodipodi:namedview>
  <path
     style="fill:#dbdbdb;fill-rule:evenodd;stroke:#000000;stroke-width:1px;stroke-linecap:butt;stroke-linejoin:miter;stroke-opacity:1;fill-opacity:1"
     d="M 250,249 70,29 l 70,0 110,150 120,-150 70,0 z"
     id="path3426"
     inkscape:connector-curvature="0" />
  <path
     style="fill:#c6245e;fill-rule:evenodd;stroke:#000000;stroke-width:1px;stroke-linecap:butt;stroke-linejoin:miter;stroke-opacity:0.99215686;fill-opacity:1"
     d="M 250,169 190,79 320,79 Z"
     id="path3428"
     inkscape:connector-curvature="0" />
  <path
     style="fill:#dcdcdc;fill-rule:evenodd;stroke:#000000;stroke-width:1px;stroke-linecap:butt;stroke-linejoin:miter;stroke-opacity:1;fill-opacity:1"
     d="m 250,249 230,-180 0,70 -160,110 160,120 0,70 z"
     id="path3430"
     inkscape:connector-curvature="0" />
  <path
     style="fill:none;fill-rule:evenodd;stroke:#000000;stroke-width:1px;stroke-linecap:butt;stroke-linejoin:miter;stroke-opacity:1"
     d="m 330,249 100,-70 0,145 z"
     id="path3432"
     inkscape:connector-curvature="0" />
  <path
     style="fill:#dcdcdc;fill-rule:evenodd;stroke:#000000;stroke-width:1px;stroke-linecap:butt;stroke-linejoin:miter;stroke-opacity:1;fill-opacity:1"
     d="m 250,249 -180,230 70,0 110,-160 120,160 70,0 z"
     id="path3434"
     inkscape:connector-curvature="0" />
  <path
     style="fill:none;fill-rule:evenodd;stroke:#000000;stroke-width:1px;stroke-linecap:butt;stroke-linejoin:miter;stroke-opacity:1"
     d="m 250,329 -70,100 140,0 z"
     id="path3436"
     inkscape:connector-curvature="0" />
  <path
     style="fill:#dcdcdc;fill-rule:evenodd;stroke:#000000;stroke-width:1px;stroke-linecap:butt;stroke-linejoin:miter;stroke-opacity:1;fill-opacity:1"
     d="M 250,249 30,69 l 0,70 150,110 -150,120 0,70 z"
     id="path3438"
     inkscape:connector-curvature="0" />
  <path
     style="fill:none;fill-rule:evenodd;stroke:#000000;stroke-width:1px;stroke-linecap:butt;stroke-linejoin:miter;stroke-opacity:1"
     d="M 70,179 170,249 70,329 Z"
     id="path3440"
     inkscape:connector-curvature="0" />
  <path
     style="fill:none;fill-rule:evenodd;stroke:#000000;stroke-width:1px;stroke-linecap:butt;stroke-linejoin:miter;stroke-opacity:1"
     d="M 240,249 40,89 40,139 190,249 40,369 40,419 240,249 Z"
     id="path3442"
     inkscape:connector-curvature="0" />
  <path
     style="fill:#dcdcdc;fill-rule:evenodd;stroke:#000000;stroke-width:1px;stroke-linecap:butt;stroke-linejoin:miter;stroke-opacity:1;fill-opacity:1"
     d="M 90,39 250,239 420,39 370,39 250,189 140,39 Z"
     id="path3444"
     inkscape:connector-curvature="0" />
  <path
     style="fill:none;fill-rule:evenodd;stroke:#000000;stroke-width:1px;stroke-linecap:butt;stroke-linejoin:miter;stroke-opacity:1"
     d="m 260,249 210,-160 0,50 -160,110 160,120 0,50 z"
     id="path3446"
     inkscape:connector-curvature="0" />
  <path
     style="fill:none;fill-rule:evenodd;stroke:#000000;stroke-width:1px;stroke-linecap:butt;stroke-linejoin:miter;stroke-opacity:1"
     d="m 250,259 -160,210 50,0 110,-160 120,160 50,0 z"
     id="path3448"
     inkscape:connector-curvature="0" />
  <path
     style="fill:none;fill-rule:evenodd;stroke:#000000;stroke-width:1px;stroke-linecap:butt;stroke-linejoin:miter;stroke-opacity:1"
     d="M 30,69 40,89 Z"
     id="path3450"
     inkscape:connector-curvature="0" />
  <path
     style="fill:none;fill-rule:evenodd;stroke:#000000;stroke-width:1px;stroke-linecap:butt;stroke-linejoin:miter;stroke-opacity:1"
     d="m 30,139 10,0 z"
     id="path3452"
     inkscape:connector-curvature="0" />
  <path
     style="fill:none;fill-rule:evenodd;stroke:#000000;stroke-width:1px;stroke-linecap:butt;stroke-linejoin:miter;stroke-opacity:1"
     d="m 180,249 10,0 z"
     id="path3454"
     inkscape:connector-curvature="0" />
  <path
     style="fill:none;fill-rule:evenodd;stroke:#000000;stroke-width:1px;stroke-linecap:butt;stroke-linejoin:miter;stroke-opacity:1"
     d="m 240,249 20,0 z"
     id="path3456"
     inkscape:connector-curvature="0" />
  <path
     style="fill:none;fill-rule:evenodd;stroke:#000000;stroke-width:1px;stroke-linecap:butt;stroke-linejoin:miter;stroke-opacity:1"
     d="m 250,239 0,20 z"
     id="path3458"
     inkscape:connector-curvature="0" />
  <path
     style="fill:none;fill-rule:evenodd;stroke:#000000;stroke-width:1px;stroke-linecap:butt;stroke-linejoin:miter;stroke-opacity:1"
     d="m 30,369 10,0 z"
     id="path3460"
     inkscape:connector-curvature="0" />
  <path
     style="fill:none;fill-rule:evenodd;stroke:#000000;stroke-width:1px;stroke-linecap:butt;stroke-linejoin:miter;stroke-opacity:1"
     d="M 30,439 40,419 Z"
     id="path3462"
     inkscape:connector-curvature="0" />
  <path
     style="fill:none;fill-rule:evenodd;stroke:#000000;stroke-width:1px;stroke-linecap:butt;stroke-linejoin:miter;stroke-opacity:1"
     d="M 70,29 90,39 Z"
     id="path3464"
     inkscape:connector-curvature="0" />
  <path
     style="fill:none;fill-rule:evenodd;stroke:#000000;stroke-width:1px;stroke-linecap:butt;stroke-linejoin:miter;stroke-opacity:1"
     d="m 140,39 0,-10 z"
     id="path3466"
     inkscape:connector-curvature="0" />
  <path
     style="fill:none;fill-rule:evenodd;stroke:#000000;stroke-width:1px;stroke-linecap:butt;stroke-linejoin:miter;stroke-opacity:1"
     d="m 250,189 0,-10 z"
     id="path3468"
     inkscape:connector-curvature="0" />
  <path
     style="fill:none;fill-rule:evenodd;stroke:#000000;stroke-width:1px;stroke-linecap:butt;stroke-linejoin:miter;stroke-opacity:1"
     d="m 370,29 0,10 z"
     id="path3470"
     inkscape:connector-curvature="0" />
  <path
     style="fill:none;fill-rule:evenodd;stroke:#000000;stroke-width:1px;stroke-linecap:butt;stroke-linejoin:miter;stroke-opacity:1"
     d="M 440,29 420,39 Z"
     id="path3472"
     inkscape:connector-curvature="0" />
  <path
     style="fill:none;fill-rule:evenodd;stroke:#000000;stroke-width:1px;stroke-linecap:butt;stroke-linejoin:miter;stroke-opacity:1"
     d="m 310,249 10,0 z"
     id="path3474"
     inkscape:connector-curvature="0" />
  <path
     style="fill:none;fill-rule:evenodd;stroke:#000000;stroke-width:1px;stroke-linecap:butt;stroke-linejoin:miter;stroke-opacity:1"
     d="m 470,139 10,0 z"
     id="path3476"
     inkscape:connector-curvature="0" />
  <path
     style="fill:none;fill-rule:evenodd;stroke:#000000;stroke-width:1px;stroke-linecap:butt;stroke-linejoin:miter;stroke-opacity:1"
     d="M 470,89 480,69 470,89 Z"
     id="path3478"
     inkscape:connector-curvature="0" />
  <path
     style="fill:none;fill-rule:evenodd;stroke:#000000;stroke-width:1px;stroke-linecap:butt;stroke-linejoin:miter;stroke-opacity:1"
     d="m 470,369 10,0 z"
     id="path3480"
     inkscape:connector-curvature="0" />
  <path
     style="fill:none;fill-rule:evenodd;stroke:#000000;stroke-width:1px;stroke-linecap:butt;stroke-linejoin:miter;stroke-opacity:1"
     d="m 470,419 10,20 z"
     id="path3482"
     inkscape:connector-curvature="0" />
  <path
     style="fill:none;fill-rule:evenodd;stroke:#000000;stroke-width:1px;stroke-linecap:butt;stroke-linejoin:miter;stroke-opacity:1"
     d="m 420,469 20,10 z"
     id="path3484"
     inkscape:connector-curvature="0" />
  <path
     style="fill:none;fill-rule:evenodd;stroke:#000000;stroke-width:1px;stroke-linecap:butt;stroke-linejoin:miter;stroke-opacity:1"
     d="m 370,479 0,-10 z"
     id="path3486"
     inkscape:connector-curvature="0" />
  <path
     style="fill:none;fill-rule:evenodd;stroke:#000000;stroke-width:1px;stroke-linecap:butt;stroke-linejoin:miter;stroke-opacity:1"
     d="m 250,309 0,10 z"
     id="path3488"
     inkscape:connector-curvature="0" />
  <path
     style="fill:none;fill-rule:evenodd;stroke:#000000;stroke-width:1px;stroke-linecap:butt;stroke-linejoin:miter;stroke-opacity:1"
     d="m 140,469 0,10 z"
     id="path3490"
     inkscape:connector-curvature="0" />
  <path
     style="fill:#3e7c3e;fill-rule:evenodd;stroke:#000000;stroke-width:1px;stroke-linecap:butt;stroke-linejoin:miter;stroke-opacity:1;fill-opacity:1"
     d="M 70,479 90,469 Z"
     id="path3492"
     inkscape:connector-curvature="0" />
  <path
     style="fill:#3e7c3e;fill-opacity:1;stroke:#3e7c3e;stroke-width:0.43684241;stroke-opacity:1"
     d="m 70.84798,180.29338 c -0.418989,45.69632 -0.299779,91.39994 -0.162109,137.09856 0.251222,3.28102 -0.328592,7.00643 0.588713,10.04908 32.533326,-26.08349 65.209846,-52.07123 97.703396,-78.15469 -31.21667,-22.53922 -62.80795,-44.56686 -94.416945,-66.55467 -1.225582,-0.79765 -2.470483,-1.77393 -3.713055,-2.43828 z"
     id="path3519"
     inkscape:connector-curvature="0" />
  <path
     style="fill:#bc0000;fill-opacity:0.99607843;stroke:#bc0000;stroke-width:0.43684241;stroke-opacity:0.99607843"
     d="m 249.96873,330.18408 c -23.1371,32.51471 -46.06745,65.1838 -68.7276,98.03188 7.53165,0.87614 15.38298,0.35784 23.0349,0.56875 38.16378,0.01 76.41482,0.22324 114.52439,-0.22491 -21.79047,-32.00197 -44.08591,-63.66543 -66.42714,-95.2869 -0.78667,-0.94733 -1.55296,-2.45797 -2.40455,-3.08882 z"
     id="path3521"
     inkscape:connector-curvature="0" />
  <path
     style="fill:#4c61a4;fill-opacity:1;stroke:#4c61a4;stroke-width:0.21842121;stroke-opacity:1"
     d="m 380.14525,214.44938 c -16.39343,11.51645 -32.85745,22.93759 -49.1388,34.61037 32.67985,24.75964 65.55512,49.26185 98.33391,73.89079 0.10041,-47.64336 0.0998,-95.28687 0,-142.93023 -16.39837,11.47635 -32.79674,22.95271 -49.19511,34.42907 z"
     id="path3523"
     inkscape:connector-curvature="0" />
</svg>
